<!DOCTYPE svg PUBLIC "-//W3C//DTD SVG 1.1//EN" "http://www.w3.org/Graphics/SVG/1.1/DTD/svg11.dtd">
<!-- Uploaded to: SVG Repo, www.svgrepo.com, Transformed by: SVG Repo Mixer Tools -->
<svg fill="#ffffff" width="800px" height="800px" viewBox="0 0 20.00 20.00" xmlns="http://www.w3.org/2000/svg" stroke="#ffffff" stroke-width="0.0002">
<g id="SVGRepo_bgCarrier" stroke-width="0">
<rect x="0" y="0" width="20.00" height="20.00" rx="1.4" fill="#7ed0ec" strokewidth="0"/>
</g>
<g id="SVGRepo_tracerCarrier" stroke-linecap="round" stroke-linejoin="round"/>
<g id="SVGRepo_iconCarrier"> <g> <path d="M17,7.94l1-1-.71-.71L13.76,2.71,13.05,2l-1,1,.71.71L9.07,7.39,3.54,8.5h0L2,8.81,11.19,18l1.42-7.07,3.69-3.7Zm-4,.56H9.94l3.82-3.81,1.55,1.55ZM14,16a2,2,0,0,0,4,0c0-1.1-2-3.6-2-3.6S14,14.9,14,16Z"/> </g> </g>
</svg>